<svg id="Capa_1" enable-background="new 0 0 512 512" height="512" viewBox="0 0 512 512" width="512" xmlns="http://www.w3.org/2000/svg"><g><g><path d="m0 244.033c51.199 0 51.199 20.604 102.398 20.604 51.198 0 51.198-20.604 102.396-20.604 51.199 0 51.199 20.604 102.399 20.604 51.202 0 51.202-20.604 102.404-20.604s51.201 20.603 102.403 20.603v247.364h-512z" fill="#b1e4f9"/></g><g><path d="m434.077 342.855-268.074 61.089-20.552-90.171-36.767-161.327 111.332-130.215 156.742 69.115 47.769 209.621z" fill="#ecf4ff"/><path d="m434.077 342.855-268.074 61.09-20.552-90.172c16.153-5.954 28.392-13.485 59.338-13.485 51.2 0 51.2 20.604 102.4 20.604s51.2-20.604 102.41-20.604c5.532 0 10.467.237 14.927.68z" fill="#ddeafb"/><path d="m381.232 110.998 8.875 38.943c-72.744-55.054-159.218-79.983-159.218-79.983s-67.14 59.938-108.843 141.083l-8.877-38.95 4.898-7.848 73.539-117.929c16.852-15.797 28.405-24.084 28.405-24.084s14.012 2.468 36.045 9.403l117.306 74.374z" fill="#ddeafb"/><path d="m219.088.211c21.781 4.671 122.137 29.703 201.465 108.527 2.98 2.961 3.633 7.545 1.628 11.237l-8.551 15.746c-2.867 5.278-9.842 6.578-14.445 2.719-64.773-54.302-146.775-82.866-168.2-89.723-3.289-1.053-6.882-.234-9.39 2.14-16.338 15.463-77.865 76.738-112.712 153.744-2.476 5.472-9.326 7.323-14.196 3.808l-14.529-10.486c-3.407-2.458-4.805-6.872-3.402-10.832 37.339-105.412 116.938-171.458 134.544-185.105 2.211-1.713 5.053-2.361 7.788-1.775z" fill="#e28086"/><path d="m235.126 4.153c-17.627 13.67-109.272 89.08-146.606 194.478-.597 1.679-.68 3.431-.33 5.089l-8.025-5.79c-3.41-2.462-4.811-6.871-3.41-10.838 37.345-105.408 116.947-171.453 134.553-185.103 2.205-1.72 5.048-2.359 7.788-1.772 3.472.742 8.952 2.009 16.03 3.936z" fill="#dd636e"/><path d="m235.29 4.194c-.051-.021-.113-.031-.165-.041l.01-.01c.433-.33.423-.268.155.051z" fill="#dd636e"/><path d="m218.286 301.884c42.525-4.891 84.009-14.346 124.453-28.364-4.891-42.524-14.346-84.009-28.364-124.453-42.524 4.891-84.009 18.004-124.453 32.022 4.892 42.525 14.346 80.351 28.364 120.795z" fill="#365e7d"/><path d="m350.415 272.638c-4.932-42.885-14.602-85.312-28.739-126.101-1.186-3.421-4.592-5.56-8.183-5.145-42.885 4.932-85.311 14.602-126.101 28.739-3.421 1.186-5.559 4.587-5.145 8.183 4.933 42.888 14.602 85.314 28.739 126.101 1.088 3.138 4.039 5.197 7.296 5.197.294 0 .59-.017.887-.051 42.886-4.933 85.312-14.602 126.101-28.739 3.42-1.187 5.559-4.588 5.145-8.184zm-41.334-115.15c3.532 10.56 6.749 21.23 9.664 31.984l-115.253 26.267c-2.033-10.955-3.757-21.965-5.149-33.013 35.945-12.023 73.135-20.499 110.738-25.238zm-85.5 135.976c-6.857-20.5-12.555-41.407-17.07-62.564l116.083-26.456c5.099 21.024 9.022 42.335 11.725 63.782-35.944 12.023-73.135 20.498-110.738 25.238z" fill="#e28086"/></g><path d="m512 441.464c-51.202 0-51.202-20.604-102.404-20.604s-51.202 20.604-102.404 20.604c-51.2 0-51.2-20.604-102.399-20.604-51.198 0-51.198 20.604-102.396 20.604s-51.198-20.604-102.397-20.604v-98.716c51.199 0 51.199 20.604 102.398 20.604 51.198 0 51.198-20.604 102.396-20.604 51.199 0 51.199 20.604 102.399 20.604 51.202 0 51.202-20.604 102.404-20.604s51.201 20.604 102.403 20.604" fill="#90d8f9"/></g></svg>